<?xml version="1.0" encoding="UTF-8"?>
<svg version="1.1" xmlns="http://www.w3.org/2000/svg" width="512" height="512">
<path d="M0 0 C1.04062592 0.52046402 2.08125183 1.04092804 3.15341187 1.5771637 C4.25988068 2.14072067 5.36634949 2.70427765 6.50634766 3.28491211 C8.22490463 4.14843544 8.22490463 4.14843544 9.97817993 5.02940369 C13.00993227 6.55288112 16.03675356 8.08590969 19.06262207 9.62103271 C22.15680789 11.18866001 25.25555416 12.74721861 28.35400391 14.30639648 C34.42280665 17.36112205 40.48373645 20.43074191 46.54541016 23.49975586 C46.54541016 39.66975586 46.54541016 55.83975586 46.54541016 72.49975586 C49.51541016 73.48975586 49.51541016 73.48975586 52.54541016 74.49975586 C55.0316483 75.70755905 57.47721879 76.94208072 59.92041016 78.23022461 C61.3315039 78.95814535 62.74297381 79.68533726 64.15478516 80.41186523 C66.35734087 81.55029523 68.55697669 82.69335032 70.75048828 83.84912109 C72.88319675 84.97003188 75.02556894 86.07024965 77.17041016 87.16772461 C77.82058105 87.51659225 78.47075195 87.8654599 79.140625 88.22489929 C83.49282095 90.4257417 85.87255565 90.73970885 90.54541016 89.49975586 C93.07377038 88.08824061 95.46778382 86.63627504 97.89501953 85.07104492 C126.06459975 67.95762986 151.00439217 66.92582793 183.35668945 68.12646484 C189.60566478 68.33532926 195.85641215 68.4232848 202.10791016 68.52319336 C214.25818584 68.73431577 226.40091714 69.07311393 238.54541016 69.49975586 C238.54541016 74.77975586 238.54541016 80.05975586 238.54541016 85.49975586 C237.35637085 85.4678717 236.16733154 85.43598755 234.94226074 85.40313721 C223.53529015 85.11114942 212.13094089 84.93245101 200.72045135 84.85466385 C194.85841165 84.81132791 189.00195233 84.73300562 183.14208984 84.5637207 C150.84047788 83.66283671 127.25217321 87.36830599 99.59533691 104.69158936 C96.54541016 106.49975586 96.54541016 106.49975586 94.54541016 106.49975586 C94.54541016 113.09975586 94.54541016 119.69975586 94.54541016 126.49975586 C96.19541016 127.15975586 97.84541016 127.81975586 99.54541016 128.49975586 C101.67822266 129.98022461 101.67822266 129.98022461 103.67041016 131.68725586 C104.33298828 132.23768555 104.99556641 132.78811523 105.67822266 133.35522461 C108.5323249 136.63326254 110.51828145 140.08732146 110.56835938 144.54052734 C110.44149523 145.98091564 110.29971537 147.42005312 110.14453125 148.85766602 C109.46740583 155.70710683 109.85999754 160.91417173 114.27563477 166.40185547 C118.38504998 170.70646334 122.0448616 173.68243299 128.13525391 174.15209961 C131.23038315 174.18714843 134.21210646 173.91294288 137.28369141 173.56616211 C142.15474179 173.17525476 145.55280836 174.81781948 149.54541016 177.49975586 C151.78759766 179.46459961 151.78759766 179.46459961 153.42041016 181.43725586 C153.97470703 182.0856543 154.52900391 182.73405273 155.10009766 183.40209961 C159.57953113 189.90333143 159.22004744 196.87116503 158.54541016 204.49975586 C156.87491322 211.11830703 152.10029636 215.7567173 146.54541016 219.49975586 C145.22541016 219.82975586 143.90541016 220.15975586 142.54541016 220.49975586 C142.54541016 231.38975586 142.54541016 242.27975586 142.54541016 253.49975586 C164.19698585 256.79567673 164.19698585 256.79567673 183.79943848 249.11767578 C196.05363689 239.47713838 206.60575605 227.66954765 217.09428382 216.18910456 C222.96846645 209.76581341 228.9875275 203.48091173 235.00002098 197.18731308 C239.31302484 192.67016496 243.60366604 188.13789971 247.83364868 183.54278564 C248.61497162 182.70360596 249.39629456 181.86442627 250.20129395 180.99981689 C251.64473249 179.44863862 253.07778131 177.88768713 254.49728394 176.3145752 C260.0445169 170.39529787 266.15020112 166.29126596 274.23291016 164.83569336 C281.99769494 164.92725922 288.247142 165.68343315 294.54541016 170.49975586 C300.15820183 176.29964059 302.82855122 182.07887192 302.98291016 190.18725586 C303.02287109 191.32549805 303.06283203 192.46374023 303.10400391 193.63647461 C301.5236747 204.566164 294.13750494 211.59082658 286.55712891 218.97631836 C285.48700716 220.03709324 284.41799978 221.09899339 283.35005188 222.16195679 C280.56137453 224.9317118 277.75800924 227.68610633 274.95111084 230.43737793 C272.07948332 233.25749141 269.22228338 236.09214311 266.36376953 238.92553711 C260.77152379 244.46445643 255.16364764 249.98720272 249.54541016 255.49975586 C250.07587196 256.24949173 250.07587196 256.24949173 250.61705017 257.01437378 C253.63698538 261.50806709 255.17800023 264.64232549 255.17431641 270.19506836 C255.17625 271.40549805 255.17818359 272.61592773 255.18017578 273.86303711 C255.15632813 275.1044043 255.13248047 276.34577148 255.10791016 277.62475586 C255.11886719 278.87385742 255.12982422 280.12295898 255.14111328 281.40991211 C255.05068629 292.70725812 255.05068629 292.70725812 250.54541016 297.49975586 C246.32040893 300.98997427 243.93037415 301.69475456 238.54541016 301.49975586 C238.54909733 302.31936704 238.5527845 303.13897821 238.5565834 303.98342609 C238.64505005 323.95731104 238.71117595 343.93116205 238.75265884 363.90520191 C238.77325461 373.56463993 238.80131795 383.2239469 238.84716797 392.88330078 C238.88712734 401.30569366 238.91286466 409.72799159 238.92176414 418.15047663 C238.92696351 422.6071646 238.93912125 427.06358101 238.96833038 431.52018166 C238.99564356 435.72186775 239.00382332 439.92317252 238.99784088 444.12493896 C238.99893405 445.66033188 239.00679288 447.19573863 239.02223206 448.73105431 C239.1499411 462.09543886 237.00045411 472.59536329 227.54541016 482.49975586 C217.89840439 491.70909029 207.58666679 494.10851484 194.53759766 494.01733398 C193.28569641 494.02434326 192.03379517 494.03135254 190.74395752 494.03857422 C187.34280451 494.05306251 183.9426377 494.04980925 180.54154205 494.03705788 C176.96192723 494.02684451 173.38235107 494.03634646 169.80273438 494.04260254 C163.79435776 494.04985493 157.78617859 494.04035497 151.77783203 494.02124023 C144.85726279 493.99947595 137.93716512 494.00652905 131.01660728 494.02854586 C125.04679552 494.046769 119.07712471 494.04922462 113.10729408 494.03879118 C109.5540152 494.03259399 106.00095707 494.03161525 102.44769287 494.04493713 C98.48268681 494.05876763 94.51819785 494.03953351 90.55322266 494.01733398 C89.39445618 494.02543091 88.2356897 494.03352783 87.04180908 494.04187012 C77.40014557 493.94237811 68.60560265 491.94730596 61.10791016 485.56225586 C60.32544922 484.91385742 59.54298828 484.26545898 58.73681641 483.59741211 C56.42580186 481.3852645 54.48497284 479.04018535 52.54541016 476.49975586 C52.19349609 477.07983398 51.84158203 477.65991211 51.47900391 478.25756836 C47.04858278 485.26758195 42.57943377 490.77850549 34.54541016 493.49975586 C31.57867718 493.75702477 31.57867718 493.75702477 28.22746277 493.7671814 C26.31606758 493.77997635 26.31606758 493.77997635 24.36605835 493.79302979 C22.96124255 493.79233082 21.55642685 493.79140779 20.15161133 493.7902832 C18.66633263 493.79627019 17.18105704 493.80307613 15.69578552 493.81063843 C11.66673065 493.82828937 7.63776075 493.83299345 3.60867095 493.83427 C1.08939404 493.83569279 -1.42986136 493.83996482 -3.94913292 493.84526443 C-12.74401595 493.86376242 -21.5388384 493.87193543 -30.33374023 493.87036133 C-38.52205224 493.86916031 -46.71010049 493.89025535 -54.89834577 493.92184865 C-61.93631787 493.94803265 -68.97420396 493.95872772 -76.01222438 493.95745051 C-80.21217575 493.95694145 -84.41189272 493.96259304 -88.61179543 493.98380661 C-92.56406913 494.00322468 -96.51588571 494.00328941 -100.46817589 493.98877335 C-101.91451564 493.98668848 -103.36088427 493.99136697 -104.80717468 494.00349426 C-114.36691539 494.07842906 -120.36543317 493.37720856 -128.07958984 487.49975586 C-138.01621187 474.9482333 -145.579413 455.41481095 -145.76708984 439.43725586 C-145.79609375 438.64125977 -145.82509766 437.84526367 -145.85498047 437.02514648 C-145.98806077 424.25967406 -139.18241769 414.09809027 -132.76708984 403.56225586 C-131.92294902 402.16022934 -131.07961848 400.75771467 -130.23706055 399.35473633 C-128.07859533 395.76631955 -125.90850608 392.18510399 -123.73400879 388.60638428 C-122.48751604 386.55397052 -121.24349338 384.50008417 -120.00048828 382.44555664 C-116.37319639 376.45023336 -112.73877796 370.45939643 -109.09130859 364.47631836 C-108.47819824 363.46730469 -107.86508789 362.45829102 -107.23339844 361.41870117 C-106.05597115 359.48659568 -104.87148737 357.55877123 -103.6796875 355.63549805 C-103.13747559 354.7528125 -102.59526367 353.87012695 -102.03662109 352.96069336 C-101.56071533 352.19289551 -101.08480957 351.42509766 -100.59448242 350.6340332 C-98.05242933 345.87442126 -98.28562349 340.97634224 -98.24926758 335.69213867 C-98.23936798 334.80397964 -98.22946838 333.91582062 -98.2192688 333.00074768 C-98.18770796 330.06815243 -98.16291774 327.13554098 -98.13818359 324.20288086 C-98.11760939 322.16835105 -98.0966128 320.13382547 -98.07521057 318.0993042 C-98.02003805 312.74655586 -97.97060749 307.39376926 -97.92236328 302.04095459 C-97.87211309 296.57796832 -97.81644538 291.11503756 -97.76123047 285.65209961 C-97.65370784 274.93469913 -97.55224975 264.21725043 -97.45458984 253.49975586 C-98.38013672 253.53327148 -99.30568359 253.56678711 -100.25927734 253.60131836 C-105.41557041 253.4374264 -108.15901723 250.87070725 -111.60302734 247.22631836 C-114.93219838 242.04180331 -114.02729987 235.41350442 -113.95458984 229.49975586 C-113.97779297 227.61256836 -113.97779297 227.61256836 -114.00146484 225.68725586 C-113.95218545 214.05731941 -113.95218545 214.05731941 -109.45458984 209.49975586 C-104.39041932 205.34723149 -100.8209267 204.94750708 -94.55615234 205.10913086 C-93.72119232 205.11479065 -92.8862323 205.12045044 -92.02597046 205.12628174 C-89.37657719 205.14855363 -86.72856969 205.19873063 -84.07958984 205.24975586 C-82.27622405 205.26983284 -80.47283692 205.28808151 -78.66943359 205.30444336 C-74.26353099 205.34497604 -69.86059908 205.4232774 -65.45458984 205.49975586 C-65.45458984 196.58975586 -65.45458984 187.67975586 -65.45458984 178.49975586 C-67.43458984 177.83975586 -69.41458984 177.17975586 -71.45458984 176.49975586 C-72.98235131 175.81520132 -74.49565175 175.09728229 -75.99121094 174.3449707 C-76.84320068 173.91885498 -77.69519043 173.49273926 -78.57299805 173.05371094 C-79.44915771 172.61051514 -80.32531738 172.16731934 -81.22802734 171.71069336 C-82.04762939 171.29988525 -82.86723145 170.88907715 -83.71166992 170.46582031 C-86.75318409 168.93985757 -89.79118323 167.40689684 -92.82958984 165.87475586 C-99.63583984 162.45100586 -106.44208984 159.02725586 -113.45458984 155.49975586 C-113.45458984 139.32975586 -113.45458984 123.15975586 -113.45458984 106.49975586 C-115.43458984 105.83975586 -117.41458984 105.17975586 -119.45458984 104.49975586 C-121.96417906 103.28029059 -124.43333436 102.03395766 -126.89990234 100.73413086 C-128.32011471 100.00166051 -129.74069877 99.2699105 -131.16162109 98.53881836 C-133.3818751 97.3914487 -135.59920967 96.23942421 -137.81054688 95.07495117 C-139.95816138 93.94682497 -142.11528457 92.8390633 -144.27490234 91.73413086 C-144.93539581 91.38010193 -145.59588928 91.026073 -146.27639771 90.66131592 C-149.85550964 88.76557973 -149.85550964 88.76557973 -153.72363281 89.19604492 C-154.58045654 89.84138184 -154.58045654 89.84138184 -155.45458984 90.49975586 C-162.59750091 94.53705342 -170.95809731 94.90030444 -178.89208984 92.87866211 C-184.93958555 90.22107122 -189.68274367 85.0198236 -192.62646484 79.17163086 C-194.63303389 72.69760621 -194.73072254 64.32698009 -191.95458984 58.06225586 C-188.43462202 52.23739807 -182.9649605 47.51759004 -176.45458984 45.49975586 C-168.61850776 44.69461481 -160.83536408 44.37515194 -154.45458984 49.49975586 C-149.76354886 53.96696984 -145.62913015 58.31725289 -145.34912109 65.02709961 C-145.3316216 67.52252739 -145.36743005 70.00601727 -145.45458984 72.49975586 C-144.61669922 72.75281494 -143.77880859 73.00587402 -142.91552734 73.26660156 C-139.12007374 74.6189461 -135.63377607 76.35632176 -132.07958984 78.23022461 C-130.6684961 78.95814535 -129.25702619 79.68533726 -127.84521484 80.41186523 C-125.64265913 81.55029523 -123.44302331 82.69335032 -121.24951172 83.84912109 C-119.11680325 84.97003188 -116.97443106 86.07024965 -114.82958984 87.16772461 C-114.17941895 87.51659225 -113.52924805 87.8654599 -112.859375 88.22489929 C-108.57923902 90.38930202 -106.03866183 90.9292373 -101.45458984 89.49975586 C-98.73278041 88.3556918 -96.12116026 87.04310784 -93.50146484 85.68334961 C-92.76003235 85.30743179 -92.01859985 84.93151398 -91.25469971 84.54420471 C-88.90070481 83.34947831 -86.5523759 82.14413153 -84.20458984 80.93725586 C-81.84183098 79.72826288 -79.47793911 78.52163183 -77.1116333 77.31959534 C-75.64255742 76.57279203 -74.17564116 75.82172226 -72.71112061 75.06602478 C-67.67801222 72.49975586 -67.67801222 72.49975586 -65.45458984 72.49975586 C-65.45458984 56.32975586 -65.45458984 40.15975586 -65.45458984 23.49975586 C-58.52941742 19.95322816 -51.60389738 16.41033831 -44.66227722 12.89659882 C-41.43002125 11.25937028 -38.20086788 9.61660885 -34.97851562 7.95996094 C-31.87326075 6.36379115 -28.76039112 4.78350179 -25.64168167 3.2137928 C-23.87810189 2.32104271 -22.12272754 1.41214269 -20.36752319 0.5030365 C-19.28685577 -0.03759933 -18.20618835 -0.57823517 -17.09277344 -1.13525391 C-16.14679291 -1.61712662 -15.20081238 -2.09899933 -14.22616577 -2.59547424 C-8.93161121 -4.32386044 -4.7732452 -2.40990672 0 0 Z M-15.39697266 17.24389648 C-16.15745911 17.62429077 -16.91794556 18.00468506 -17.70147705 18.39660645 C-18.91731476 19.02000916 -18.91731476 19.02000916 -20.15771484 19.65600586 C-20.99550476 20.07773071 -21.83329468 20.49945557 -22.69647217 20.93395996 C-25.36969382 22.28175986 -28.03713552 23.64058322 -30.70458984 24.99975586 C-32.51672001 25.91585238 -34.32921588 26.83122588 -36.14208984 27.74584961 C-40.58462322 29.98745757 -45.01916883 32.24388208 -49.45458984 34.49975586 C-49.45458984 47.03975586 -49.45458984 59.57975586 -49.45458984 72.49975586 C-44.15958264 75.23916894 -38.86142251 77.96786618 -33.54882812 80.67236328 C-31.74378486 81.59498056 -29.94165726 82.52332571 -28.14257812 83.45751953 C-25.553551 84.8006399 -22.95468035 86.12270026 -20.35302734 87.44116211 C-19.55279144 87.8619252 -18.75255554 88.28268829 -17.92807007 88.71620178 C-14.57737604 90.39288022 -12.21005384 91.49829367 -8.42724609 91.50561523 C-4.4258223 90.1516512 -0.7473653 88.39267693 3.00634766 86.46459961 C4.19219955 85.86742882 4.19219955 85.86742882 5.40200806 85.25819397 C7.91201686 83.99204556 10.41621292 82.71485351 12.92041016 81.43725586 C14.62706903 80.57388916 16.33409658 79.71125084 18.04150391 78.84936523 C22.21454319 76.74256843 26.37952971 74.62091517 30.54541016 72.49975586 C30.54541016 59.95975586 30.54541016 47.41975586 30.54541016 34.49975586 C25.21044425 31.78636976 19.87348527 29.07806173 14.52978516 26.38208008 C12.71256997 25.4634129 10.89680096 24.54187922 9.08251953 23.61743164 C6.47494093 22.28939243 3.8623409 20.97173767 1.24853516 19.65600586 C0.43797668 19.24040405 -0.37258179 18.82480225 -1.20770264 18.39660645 C-1.96818909 18.01621216 -2.72867554 17.63581787 -3.51220703 17.24389648 C-4.1783905 16.90636353 -4.84457397 16.56883057 -5.53094482 16.22106934 C-9.29331778 14.81028393 -11.9994124 15.52246595 -15.39697266 17.24389648 Z M-174.82958984 64.12475586 C-176.9416549 67.21162018 -177.06654129 68.82804716 -176.45458984 72.49975586 C-174.95458984 74.99975586 -174.95458984 74.99975586 -172.45458984 76.49975586 C-168.78288115 77.11170731 -167.16645416 76.98682092 -164.07958984 74.87475586 C-161.96752479 71.78789154 -161.84263839 70.17146456 -162.45458984 66.49975586 C-163.95458984 63.99975586 -163.95458984 63.99975586 -166.45458984 62.49975586 C-170.12629854 61.88780441 -171.74272553 62.0126908 -174.82958984 64.12475586 Z M-63.39697266 89.24389648 C-64.15745911 89.62429077 -64.91794556 90.00468506 -65.70147705 90.39660645 C-66.91731476 91.02000916 -66.91731476 91.02000916 -68.15771484 91.65600586 C-68.99550476 92.07773071 -69.83329468 92.49945557 -70.69647217 92.93395996 C-73.36969382 94.28175986 -76.03713552 95.64058322 -78.70458984 96.99975586 C-80.51672001 97.91585238 -82.32921588 98.83122588 -84.14208984 99.74584961 C-88.58462322 101.98745757 -93.01916883 104.24388208 -97.45458984 106.49975586 C-97.45458984 119.03975586 -97.45458984 131.57975586 -97.45458984 144.49975586 C-92.15958264 147.23916894 -86.86142251 149.96786618 -81.54882812 152.67236328 C-79.74378486 153.59498056 -77.94165726 154.52332571 -76.14257812 155.45751953 C-73.553551 156.8006399 -70.95468035 158.12270026 -68.35302734 159.44116211 C-67.55279144 159.8619252 -66.75255554 160.28268829 -65.92807007 160.71620178 C-62.57737604 162.39288022 -60.21005384 163.49829367 -56.42724609 163.50561523 C-52.4258223 162.1516512 -48.7473653 160.39267693 -44.99365234 158.46459961 C-43.80780045 157.86742882 -43.80780045 157.86742882 -42.59799194 157.25819397 C-40.08798314 155.99204556 -37.58378708 154.71485351 -35.07958984 153.43725586 C-33.37293097 152.57388916 -31.66590342 151.71125084 -29.95849609 150.84936523 C-25.78545681 148.74256843 -21.62047029 146.62091517 -17.45458984 144.49975586 C-17.45458984 131.95975586 -17.45458984 119.41975586 -17.45458984 106.49975586 C-22.78955575 103.78636976 -28.12651473 101.07806173 -33.47021484 98.38208008 C-35.28743003 97.4634129 -37.10319904 96.54187922 -38.91748047 95.61743164 C-41.52505907 94.28939243 -44.1376591 92.97173767 -46.75146484 91.65600586 C-47.56202332 91.24040405 -48.37258179 90.82480225 -49.20770264 90.39660645 C-49.96818909 90.01621216 -50.72867554 89.63581787 -51.51220703 89.24389648 C-52.1783905 88.90636353 -52.84457397 88.56883057 -53.53094482 88.22106934 C-57.29331778 86.81028393 -59.9994124 87.52246595 -63.39697266 89.24389648 Z M32.60302734 89.24389648 C31.84254089 89.62429077 31.08205444 90.00468506 30.29852295 90.39660645 C29.08268524 91.02000916 29.08268524 91.02000916 27.84228516 91.65600586 C27.00449524 92.07773071 26.16670532 92.49945557 25.30352783 92.93395996 C22.63030618 94.28175986 19.96286448 95.64058322 17.29541016 96.99975586 C15.48327999 97.91585238 13.67078412 98.83122588 11.85791016 99.74584961 C7.41537678 101.98745757 2.98083117 104.24388208 -1.45458984 106.49975586 C-1.45458984 119.03975586 -1.45458984 131.57975586 -1.45458984 144.49975586 C3.84041736 147.23916894 9.13857749 149.96786618 14.45117188 152.67236328 C16.25621514 153.59498056 18.05834274 154.52332571 19.85742188 155.45751953 C22.446449 156.8006399 25.04531965 158.12270026 27.64697266 159.44116211 C28.44720856 159.8619252 29.24744446 160.28268829 30.07192993 160.71620178 C35.79441662 163.57971899 38.89656011 163.7112601 45.03076172 161.67456055 C56.35382931 157.50836804 56.35382931 157.50836804 64.15478516 149.15600586 C64.52838292 145.89823334 64.57171367 142.77454316 64.54541016 139.49975586 C67.35418341 133.55812014 72.70489479 129.42001354 78.54541016 126.49975586 C78.54541016 119.89975586 78.54541016 113.29975586 78.54541016 106.49975586 C73.21044425 103.78636976 67.87348527 101.07806173 62.52978516 98.38208008 C60.71256997 97.4634129 58.89680096 96.54187922 57.08251953 95.61743164 C54.47494093 94.28939243 51.8623409 92.97173767 49.24853516 91.65600586 C48.43797668 91.24040405 47.62741821 90.82480225 46.79229736 90.39660645 C46.03181091 90.01621216 45.27132446 89.63581787 44.48779297 89.24389648 C43.8216095 88.90636353 43.15542603 88.56883057 42.46905518 88.22106934 C38.70668222 86.81028393 36.0005876 87.52246595 32.60302734 89.24389648 Z M81.17041016 144.12475586 C79.0583451 147.21162018 78.93345871 148.82804716 79.54541016 152.49975586 C81.04541016 154.99975586 81.04541016 154.99975586 83.54541016 156.49975586 C87.21711885 157.11170731 88.83354584 156.98682092 91.92041016 154.87475586 C94.03247521 151.78789154 94.15736161 150.17146456 93.54541016 146.49975586 C92.04541016 143.99975586 92.04541016 143.99975586 89.54541016 142.49975586 C85.87370146 141.88780441 84.25727447 142.0126908 81.17041016 144.12475586 Z M-15.39697266 161.24389648 C-16.15745911 161.62429077 -16.91794556 162.00468506 -17.70147705 162.39660645 C-18.91731476 163.02000916 -18.91731476 163.02000916 -20.15771484 163.65600586 C-20.99550476 164.07773071 -21.83329468 164.49945557 -22.69647217 164.93395996 C-25.36969382 166.28175986 -28.03713552 167.64058322 -30.70458984 168.99975586 C-32.51672001 169.91585238 -34.32921588 170.83122588 -36.14208984 171.74584961 C-40.58462322 173.98745757 -45.01916883 176.24388208 -49.45458984 178.49975586 C-49.45458984 187.40975586 -49.45458984 196.31975586 -49.45458984 205.49975586 C-47.36550293 205.50910156 -45.27641602 205.51844727 -43.12402344 205.52807617 C-36.21079153 205.56188932 -29.29785677 205.6174622 -22.3848629 205.6836586 C-18.1947107 205.72311694 -14.00476813 205.7553133 -9.81445312 205.77075195 C-5.76822224 205.78592964 -1.72256772 205.82039414 2.32340622 205.86806488 C3.86465817 205.88286736 5.40599242 205.89079623 6.94731522 205.89163971 C9.11165591 205.89401472 11.27441058 205.92113279 13.43847656 205.95385742 C14.66869537 205.96273987 15.89891418 205.97162231 17.16641235 205.98077393 C22.12714822 206.74269579 25.31296473 208.93253599 28.39331055 212.84960938 C30.6703098 218.08733492 30.01437556 223.81639037 29.98291016 229.43725586 C30.00289063 230.69989258 30.02287109 231.9625293 30.04345703 233.26342773 C30.03738608 244.76787698 30.03738608 244.76787698 25.54541016 249.49975586 C21.96526067 252.2319752 18.94026164 252.83992279 14.54541016 253.49975586 C14.4758363 265.24374909 14.42256127 276.98769311 14.38997364 288.73185062 C14.37433159 294.18540297 14.35311979 299.63881408 14.3190918 305.09228516 C14.28644656 310.3572217 14.26854615 315.62202257 14.26077843 320.88705254 C14.25524421 322.89366224 14.24443723 324.90026469 14.22821999 326.90681648 C14.20637722 329.72189384 14.20344611 332.53641375 14.20483398 335.3515625 C14.19404816 336.17731277 14.18326233 337.00306305 14.17214966 337.85383606 C14.21415483 345.7508078 17.1821119 351.12248902 21.17041016 357.89428711 C21.51414673 358.48016602 21.8578833 359.06604492 22.21203613 359.66967773 C23.31882809 361.55312868 24.43176738 363.43284888 25.54541016 365.31225586 C26.3105328 366.6092873 27.07550589 367.90640697 27.84033203 369.20361328 C32.20471874 376.5953333 36.5939153 383.97262505 41.04541016 391.31225586 C41.49529297 392.05773682 41.94517578 392.80321777 42.40869141 393.57128906 C43.42522695 395.23223554 44.48038285 396.86947841 45.54541016 398.49975586 C45.87541016 398.49975586 46.20541016 398.49975586 46.54541016 398.49975586 C46.54541016 366.48975586 46.54541016 334.47975586 46.54541016 301.49975586 C43.90541016 300.83975586 41.26541016 300.17975586 38.54541016 299.49975586 C35.05331848 297.22230477 33.0627645 295.36279488 31.54541016 291.49975586 C31.08784834 286.88645615 31.17509533 282.25839248 31.17041016 277.62475586 C31.14591797 276.35760742 31.12142578 275.09045898 31.09619141 273.78491211 C31.05906778 262.01672174 31.05906778 262.01672174 35.54541016 257.49975586 C39.84922408 254.20800837 43.77559265 254.05783248 49.00756836 254.06738281 C50.26687416 254.05209534 50.26687416 254.05209534 51.55162048 254.03649902 C54.31654555 254.00639229 57.08112402 253.99710666 59.84619141 253.98803711 C61.76719817 253.9711887 63.68819393 253.95303824 65.60917664 253.93363953 C70.65777139 253.88615104 75.70632148 253.85633417 80.75506592 253.8302002 C85.90987975 253.80038893 91.06453974 253.75386051 96.21923828 253.70874023 C106.32788174 253.62272017 116.43655688 253.55536904 126.54541016 253.49975586 C126.76881416 248.91023556 126.93158945 244.32390767 127.03979492 239.73022461 C127.08491066 238.17009344 127.14622735 236.61033989 127.22436523 235.05151367 C128.00184637 226.05536852 128.00184637 226.05536852 124.58764648 218.19628906 C122.29559286 216.69248221 120.04497296 215.60778934 117.54541016 214.49975586 C114.57761742 211.37976862 112.77135683 208.61983234 111.54541016 204.49975586 C111.69981486 202.45389359 111.85978315 200.4076944 112.08496094 198.3684082 C112.7425754 191.16211325 112.13317717 185.95027589 107.45507812 180.23535156 C103.15321237 175.75046525 99.27182889 172.32083356 92.88916016 171.78100586 C89.79877304 171.74098646 86.83564377 172.02773819 83.77197266 172.39819336 C79.55064074 172.80143088 76.90134356 171.59156989 73.28515625 169.49438477 C71.40472088 168.34379078 71.40472088 168.34379078 68.54541016 167.49975586 C65.58840041 168.69624087 65.58840041 168.69624087 62.33837891 170.49975586 C61.09960715 171.14589706 59.86066954 171.79172038 58.62158203 172.43725586 C56.67669706 173.46550126 54.73474353 174.49877227 52.79614258 175.53881836 C50.92140438 176.53982492 49.03708548 177.52057441 47.15087891 178.49975586 C45.4670813 179.39694336 45.4670813 179.39694336 43.74926758 180.31225586 C39.28843517 181.96564981 36.75444861 181.45750294 32.43199158 179.58346558 C29.8973771 178.3751202 27.40486131 177.1017439 24.91259766 175.80834961 C23.99834015 175.34364761 23.08408264 174.87894562 22.14212036 174.40016174 C19.23089985 172.92018383 16.32509558 171.43001493 13.42041016 169.93725586 C9.58905953 167.96846395 5.75259052 166.01022129 1.91259766 164.05834961 C1.03336639 163.6021373 0.15413513 163.14592499 -0.7517395 162.67588806 C-1.98354446 162.05007591 -1.98354446 162.05007591 -3.24023438 161.41162109 C-3.95938019 161.04157455 -4.678526 160.67152802 -5.41946411 160.29026794 C-9.221308 158.81350241 -11.94176566 159.49325827 -15.39697266 161.24389648 Z M266.21142578 188.90966797 C265.52750763 189.59081161 264.84358948 190.27195526 264.13894653 190.97373962 C261.89023174 193.22292824 259.6712563 195.49920083 257.45166016 197.77709961 C255.89535692 199.34578997 254.33734825 200.91279007 252.77770996 202.47816467 C248.68260947 206.59810789 244.61252563 210.74194849 240.54675293 214.89080811 C237.21325588 218.2844158 233.86293658 221.66113311 230.51151276 225.0370245 C223.60492214 231.99418274 216.70925399 238.96224896 209.84423828 245.96044922 C209.20225494 246.61140564 208.56027161 247.26236206 207.89883423 247.93304443 C204.94729211 250.34934321 204.94729211 250.34934321 203.54541016 253.49975586 C211.31976421 255.70775938 218.83451251 256.15988544 226.54541016 253.49975586 C237.74004991 246.94940478 246.69063506 235.97032124 255.47485352 226.61590576 C258.16347144 223.7825601 260.90951793 221.00871403 263.65915585 218.23474121 C266.3115487 215.55296878 268.9408074 212.84951153 271.56225777 210.13751221 C272.81156923 208.84529125 274.06473072 207.55678057 275.32185173 206.27215576 C277.06800981 204.47555493 278.78441305 202.65496792 280.49438477 200.82397461 C281.00994431 200.30104324 281.52550385 199.77811188 282.0566864 199.23933411 C284.7251374 196.3160418 285.86670673 194.15123317 285.95484924 190.26074219 C285.81722943 186.5573762 285.81722943 186.5573762 284.04541016 183.99975586 C276.44267247 179.43811325 271.48835477 183.40345128 266.21142578 188.90966797 Z M129.17041016 192.12475586 C127.0583451 195.21162018 126.93345871 196.82804716 127.54541016 200.49975586 C129.04541016 202.99975586 129.04541016 202.99975586 131.54541016 204.49975586 C135.21711885 205.11170731 136.83354584 204.98682092 139.92041016 202.87475586 C142.03247521 199.78789154 142.15736161 198.17146456 141.54541016 194.49975586 C140.04541016 191.99975586 140.04541016 191.99975586 137.54541016 190.49975586 C133.87370146 189.88780441 132.25727447 190.0126908 129.17041016 192.12475586 Z M-97.45458984 221.49975586 C-97.45458984 226.77975586 -97.45458984 232.05975586 -97.45458984 237.49975586 C-60.49458984 237.49975586 -23.53458984 237.49975586 14.54541016 237.49975586 C14.54541016 232.21975586 14.54541016 226.93975586 14.54541016 221.49975586 C-22.41458984 221.49975586 -59.37458984 221.49975586 -97.45458984 221.49975586 Z M-81.45458984 253.49975586 C-81.45716797 260.51870117 -81.45974609 267.53764648 -81.46240234 274.76928711 C-81.47735974 279.230941 -81.49407552 283.69245086 -81.51708984 288.15405273 C-81.55340784 295.22698169 -81.58341283 302.29952306 -81.57470703 309.37255859 C-81.56809244 315.07871527 -81.59072082 320.78409216 -81.63314438 326.49008751 C-81.64423758 328.66080637 -81.64501017 330.83160468 -81.63501358 333.00232887 C-81.54959745 354.28824177 -81.54959745 354.28824177 -88.45458984 363.49975586 C-89.13455509 364.65581172 -89.79962367 365.82089838 -90.44238281 366.99804688 C-92.40164772 370.35464447 -94.36214978 373.71044372 -96.32958984 377.06225586 C-96.69132294 377.68016998 -97.05305603 378.29808411 -97.42575073 378.9347229 C-101.58510539 386.03569687 -105.7950332 393.10137814 -110.12255859 400.10131836 C-110.49495667 400.7036882 -110.86735474 401.30605804 -111.2510376 401.92668152 C-113.03477702 404.80687699 -114.82708521 407.68121909 -116.62792969 410.55078125 C-117.2629541 411.56906006 -117.89797852 412.58733887 -118.55224609 413.63647461 C-119.11435791 414.53068115 -119.67646973 415.4248877 -120.25561523 416.34619141 C-121.61673426 418.38019034 -121.61673426 418.38019034 -121.45458984 420.49975586 C-119.9119684 420.21318191 -118.37053378 419.92021709 -116.82958984 419.62475586 C-115.97107422 419.46233398 -115.11255859 419.29991211 -114.22802734 419.13256836 C-113.31279297 418.92374023 -112.39755859 418.71491211 -111.45458984 418.49975586 C-109.96572266 418.17104492 -109.96572266 418.17104492 -108.44677734 417.83569336 C-104.52136278 416.08309312 -102.62897961 413.40097808 -100.20458984 409.99975586 C-99.23891778 408.72299371 -98.26880726 407.44957724 -97.29443359 406.17944336 C-96.57489502 405.2392334 -96.57489502 405.2392334 -95.84082031 404.2800293 C-87.06075833 393.00419062 -74.75019323 384.83013504 -60.45458984 382.49975586 C-57.05331629 382.19244537 -53.68118349 382.11883835 -50.26708984 382.12475586 C-48.88432861 382.12608521 -48.88432861 382.12608521 -47.47363281 382.12744141 C-39.84204522 382.25906658 -33.53928946 383.55395677 -26.45458984 386.49975586 C-25.68244141 386.8078418 -24.91029297 387.11592773 -24.11474609 387.43334961 C-22.54464728 388.08315288 -20.99533676 388.78312939 -19.45458984 389.49975586 C-18.47047734 388.23274863 -17.49247488 386.96099396 -16.51708984 385.68725586 C-15.69917969 384.62571289 -15.69917969 384.62571289 -14.86474609 383.54272461 C-13.28602736 381.45850533 -13.28602736 381.45850533 -12.45458984 378.49975586 C-11.14206102 377.79300957 -9.80180267 377.1379093 -8.45458984 376.49975586 C-7.36087407 375.72249592 -6.2785942 374.92903309 -5.20458984 374.12475586 C-1.4900053 371.40932204 2.39117785 369.46755011 6.54541016 367.49975586 C5.25322857 364.09729196 3.73565827 360.99920253 1.96162415 357.82620239 C-0.70534508 352.52039066 -1.17093054 348.14782043 -1.11401367 342.27661133 C-1.12449738 341.30954758 -1.13498108 340.34248383 -1.14578247 339.34611511 C-1.17432044 336.18605622 -1.16826584 333.0271069 -1.16162109 329.86694336 C-1.17474896 327.66161745 -1.19005652 325.45630353 -1.20744324 323.25100708 C-1.24717819 317.47409683 -1.25747632 311.69750196 -1.26147461 305.92047119 C-1.27247494 298.97435835 -1.32033682 292.02841185 -1.36196136 285.08242798 C-1.4209522 274.55472972 -1.43335596 264.02790273 -1.45458984 253.49975586 C-27.85458984 253.49975586 -54.25458984 253.49975586 -81.45458984 253.49975586 Z M46.54541016 269.49975586 C46.54541016 274.77975586 46.54541016 280.05975586 46.54541016 285.49975586 C109.90541016 285.49975586 173.26541016 285.49975586 238.54541016 285.49975586 C238.54541016 280.21975586 238.54541016 274.93975586 238.54541016 269.49975586 C175.18541016 269.49975586 111.82541016 269.49975586 46.54541016 269.49975586 Z M62.54541016 301.49975586 C62.54541016 338.45975586 62.54541016 375.41975586 62.54541016 413.49975586 C67.16541016 415.47975586 71.78541016 417.45975586 76.54541016 419.49975586 C77.20541016 419.82975586 77.86541016 420.15975586 78.54541016 420.49975586 C78.64337891 419.87069336 78.74134766 419.24163086 78.84228516 418.59350586 C80.33064892 410.07390636 83.10717778 401.51424499 90.36572266 396.15600586 C96.80130535 391.94718372 102.61350998 390.10632997 110.35791016 390.12475586 C111.06351074 390.12636719 111.76911133 390.12797852 112.49609375 390.12963867 C118.36065134 390.26718406 122.60021846 391.44756227 127.54541016 394.49975586 C128.59728516 395.05663086 129.64916016 395.61350586 130.73291016 396.18725586 C136.3615261 400.81522897 139.43810598 406.60131672 141.54541016 413.49975586 C142.97820312 413.6119043 142.97820312 413.6119043 144.43994141 413.72631836 C153.42435804 414.63998785 159.89105816 416.43262253 167.54541016 421.49975586 C168.39361328 422.05791992 169.24181641 422.61608398 170.11572266 423.19116211 C171.644884 424.21142249 173.16469433 425.24598246 174.67041016 426.30053711 C180.19808821 429.83594786 187.25828568 428.99684477 193.54541016 428.49975586 C197.40495906 427.39250822 200.33224737 425.33999194 203.60400391 423.07397461 C209.65841107 418.89740496 215.67932222 416.18305459 222.54541016 413.49975586 C222.54541016 408.21975586 222.54541016 402.93975586 222.54541016 397.49975586 C211.98541016 397.49975586 201.42541016 397.49975586 190.54541016 397.49975586 C190.54541016 392.21975586 190.54541016 386.93975586 190.54541016 381.49975586 C201.10541016 381.49975586 211.66541016 381.49975586 222.54541016 381.49975586 C222.54541016 376.21975586 222.54541016 370.93975586 222.54541016 365.49975586 C211.98541016 365.49975586 201.42541016 365.49975586 190.54541016 365.49975586 C190.54541016 360.21975586 190.54541016 354.93975586 190.54541016 349.49975586 C201.10541016 349.49975586 211.66541016 349.49975586 222.54541016 349.49975586 C222.54541016 344.21975586 222.54541016 338.93975586 222.54541016 333.49975586 C211.98541016 333.49975586 201.42541016 333.49975586 190.54541016 333.49975586 C190.54541016 328.21975586 190.54541016 322.93975586 190.54541016 317.49975586 C201.10541016 317.49975586 211.66541016 317.49975586 222.54541016 317.49975586 C222.54541016 312.21975586 222.54541016 306.93975586 222.54541016 301.49975586 C169.74541016 301.49975586 116.94541016 301.49975586 62.54541016 301.49975586 Z M-1.64208984 392.59741211 C-4.19487125 395.27673225 -5.45458984 396.72289028 -5.45458984 400.49975586 C-3.84377379 401.75568181 -3.84377379 401.75568181 -1.45458984 402.49975586 C1.94414038 401.8931828 1.94414038 401.8931828 5.60791016 400.68725586 C11.92268113 398.8227403 17.94143396 397.77434946 24.54541016 397.49975586 C23.1740085 393.82280938 21.50845215 390.54656997 19.48291016 387.18725586 C18.95568359 386.30424805 18.42845703 385.42124023 17.88525391 384.51147461 C17.44310547 383.84760742 17.00095703 383.18374023 16.54541016 382.49975586 C9.56838404 382.49975586 3.10993818 388.17632889 -1.64208984 392.59741211 Z M-79.83740234 410.82788086 C-81.57046544 412.23187664 -81.57046544 412.23187664 -81.45458984 413.49975586 C-80.87717041 413.51433838 -80.29975098 413.5289209 -79.70483398 413.54394531 C-69.86846457 413.81964033 -60.0912224 414.10932373 -50.39208984 415.87475586 C-49.70630859 415.99729736 -49.02052734 416.11983887 -48.31396484 416.24609375 C-45.07441402 416.86484483 -42.00322918 417.6482427 -38.86865234 418.67944336 C-35.55132645 419.73882249 -32.94078415 420.54114867 -29.45458984 420.49975586 C-25.41817826 418.07477991 -22.45911084 415.10111173 -19.45458984 411.49975586 C-25.23555736 404.94799268 -32.84760654 400.22115252 -41.45458984 398.49975586 C-42.11716797 398.36698242 -42.77974609 398.23420898 -43.46240234 398.09741211 C-57.76837588 395.81563497 -69.52183551 401.33327609 -79.83740234 410.82788086 Z M97.17041016 413.12475586 C95.00105546 417.63033868 95.00505422 421.57454436 95.54541016 426.49975586 C95.87541016 427.15975586 96.20541016 427.81975586 96.54541016 428.49975586 C108.04246119 429.45784345 115.20669974 423.61111783 124.54541016 417.49975586 C124.08555007 413.92734167 124.08555007 413.92734167 122.20556641 410.95288086 C113.25439045 404.212142 104.92736655 404.55127774 97.17041016 413.12475586 Z M-9.45458984 425.49975586 C2.87879335 432.61516924 25.17937541 429.61242354 38.39697266 426.15600586 C39.10595703 425.93944336 39.81494141 425.72288086 40.54541016 425.49975586 C40.54541016 422.05614954 39.74949484 420.75180193 38.04541016 417.81225586 C37.58134766 417.00401367 37.11728516 416.19577148 36.63916016 415.36303711 C36.09775391 414.44071289 36.09775391 414.44071289 35.54541016 413.49975586 C19.91267784 412.95123894 2.90555601 415.19963431 -9.45458984 425.49975586 Z M-128.45458984 442.49975586 C-127.0840123 449.68602732 -124.81995365 456.1279593 -122.01708984 462.87475586 C-121.62199219 463.85831055 -121.22689453 464.84186523 -120.81982422 465.85522461 C-120.43246094 466.7975293 -120.04509766 467.73983398 -119.64599609 468.71069336 C-119.29738525 469.55937988 -118.94877441 470.40806641 -118.58959961 471.2824707 C-117.12113213 474.15117831 -115.84404842 476.04552948 -112.70917416 477.07034779 C-110.02021077 477.58248769 -107.50684752 477.62891315 -104.76820374 477.63346863 C-103.60877762 477.63773361 -102.4493515 477.6419986 -101.25479126 477.64639282 C-99.98662567 477.64593964 -98.71846008 477.64548645 -97.41186523 477.64501953 C-96.05979825 477.64801243 -94.70773212 477.65141526 -93.35566711 477.65519714 C-89.68625922 477.66402729 -86.01687466 477.66637482 -82.34745717 477.66701293 C-80.05452116 477.6677239 -77.76159108 477.6698591 -75.46865654 477.67251015 C-67.46827696 477.68175975 -59.46791404 477.68584545 -51.4675293 477.68505859 C-44.01145841 477.68445764 -36.55545984 477.69501379 -29.09940726 477.71080226 C-22.69590097 477.72387847 -16.29241832 477.72924247 -9.88889879 477.72860318 C-6.06524547 477.72834825 -2.24165645 477.73119683 1.58198357 477.74178123 C5.17791151 477.75146378 8.7737137 477.75154037 12.36964607 477.7442646 C14.31646458 477.74272084 16.26328307 477.75106412 18.21008301 477.75970459 C19.37232895 477.7555101 20.53457489 477.75131561 21.73204041 477.74699402 C23.24382323 477.74781117 23.24382323 477.74781117 24.78614712 477.74864483 C28.62211207 477.402636 31.52759891 476.57678576 34.20288086 473.74584961 C37.04968973 468.98304881 38.76717661 463.67067263 40.73291016 458.49975586 C41.19632813 457.31124023 41.65974609 456.12272461 42.13720703 454.89819336 C42.57484375 453.75608398 43.01248047 452.61397461 43.46337891 451.43725586 C43.86322998 450.3944043 44.26308105 449.35155273 44.67504883 448.27709961 C45.74476955 445.34868311 45.74476955 445.34868311 45.54541016 441.49975586 C44.66626953 441.71631836 43.78712891 441.93288086 42.88134766 442.15600586 C20.47924992 447.1355609 -2.49887674 445.63807068 -24.45458984 439.49975586 C-25.52177246 439.20552734 -26.58895508 438.91129883 -27.68847656 438.6081543 C-32.0561556 437.39946442 -36.42211056 436.18902309 -40.77026367 434.91162109 C-52.18994049 431.57824361 -62.72672043 430.1333154 -74.64208984 430.18725586 C-76.56529053 430.19462769 -76.56529053 430.19462769 -78.52734375 430.20214844 C-96.0659151 430.41885237 -112.96010717 433.96197969 -128.45458984 442.49975586 Z M127.54541016 434.49975586 C114.53790002 443.42601052 104.36023296 446.03101021 88.54541016 444.49975586 C81.27877419 443.08210466 75.2429319 438.57919235 69.18847656 434.49804688 C66.13970681 432.23647178 66.13970681 432.23647178 62.54541016 431.49975586 C62.48657287 434.97884957 62.45153617 438.4578126 62.42041016 441.93725586 C62.40365234 442.91114258 62.38689453 443.8850293 62.36962891 444.88842773 C62.3110003 453.653404 62.79571912 461.50688838 68.54541016 468.49975586 C77.15476291 477.04761324 85.65553395 477.65026539 97.36499023 477.64501953 C98.98321938 477.65005745 98.98321938 477.65005745 100.63414001 477.65519714 C104.19441892 477.66468254 107.75465066 477.66664907 111.31494141 477.66772461 C113.7958732 477.67093892 116.27680481 477.67430312 118.75773621 477.67781067 C123.95690348 477.68379594 129.15605414 477.68565119 134.35522461 477.68505859 C141.00625139 477.68495702 147.65713387 477.69860718 154.30814075 477.7158308 C159.43235256 477.72696789 164.55653867 477.72897727 169.68076134 477.72844887 C172.13227392 477.72962648 174.58378722 477.73403595 177.03528786 477.74178123 C180.4694828 477.75161522 183.90344757 477.74868947 187.33764648 477.74267578 C188.34314545 477.74829529 189.34864441 477.75391479 190.38461304 477.75970459 C199.88401823 477.71758883 208.18000895 476.90375707 215.17431641 469.85913086 C222.68765299 461.53109513 222.69834357 452.90720093 222.60791016 442.12475586 C222.60114258 440.59141602 222.60114258 440.59141602 222.59423828 439.02709961 C222.58251316 436.51792392 222.56610192 434.00887096 222.54541016 431.49975586 C218.42639965 433.17824019 214.83596304 434.79968123 211.23291016 437.43725586 C200.1842527 444.82144193 189.65278546 446.00492222 176.54541016 444.49975586 C168.40696355 442.55048112 161.80732115 437.95173016 155.04150391 433.17163086 C147.02962027 427.80529879 135.23062765 429.20296748 127.54541016 434.49975586 Z " fill="#5E67EB" transform="translate(201.45458984375,10.500244140625)"/>
<path d="M0 0 C5.82485779 3.51996782 10.54466582 8.98962934 12.5625 15.5 C13.36764105 23.33608208 13.68710392 31.11922577 8.5625 37.5 C3.75801361 42.54521222 -0.59927055 46.10562995 -7.70703125 46.8359375 C-16.22326573 46.92983204 -22.11345494 46.6177288 -28.40234375 40.62890625 C-34.7841668 33.72505269 -35.91792252 28.29832071 -35.7421875 18.9453125 C-35.04689797 11.08319245 -31.38995981 6.95041296 -25.53515625 1.9453125 C-18.47077988 -2.92213491 -7.84396301 -3.47595223 0 0 Z M-16.8125 17.125 C-18.92456506 20.21186432 -19.04945145 21.8282913 -18.4375 25.5 C-16.9375 28 -16.9375 28 -14.4375 29.5 C-10.7657913 30.11195145 -9.14936432 29.98706506 -6.0625 27.875 C-3.95043494 24.78813568 -3.82554855 23.1717087 -4.4375 19.5 C-5.9375 17 -5.9375 17 -8.4375 15.5 C-12.1092087 14.88804855 -13.72563568 15.01293494 -16.8125 17.125 Z " fill="#6C5AF0" transform="translate(171.4375,313.5)"/>
<path d="M0 0 C31.68 0 63.36 0 96 0 C96 5.28 96 10.56 96 16 C64.32 16 32.64 16 0 16 C0 10.72 0 5.44 0 0 Z " fill="#2C93DD" transform="translate(344,112)"/>
<path d="M0 0 C15.84 0 31.68 0 48 0 C48 5.28 48 10.56 48 16 C32.16 16 16.32 16 0 16 C0 10.72 0 5.44 0 0 Z " fill="#368BDF" transform="translate(392,144)"/>
<path d="M0 0 C10.56 0 21.12 0 32 0 C32 5.28 32 10.56 32 16 C21.44 16 10.88 16 0 16 C0 10.72 0 5.44 0 0 Z " fill="#368BDF" transform="translate(344,144)"/>
</svg>
